<svg width="450" height="450" viewBox="0 0 450 450" fill="none" xmlns="http://www.w3.org/2000/svg">
<g id="unknown-profile-picture">
<rect width="450" height="450" fill="white"/>
<path id="torso" d="M187 193.5H263C294.756 193.5 320.5 219.244 320.5 251V397.5H129.5V251C129.5 219.244 155.244 193.5 187 193.5Z" fill="white" stroke="black" stroke-width="5"/>
<circle id="head" cx="225" cy="125" r="77.5" fill="white" stroke="black" stroke-width="5"/>
<path id="simbyl" d="M243.784 245C243.784 249.533 239.317 256 230.384 264.4C227.317 267.067 224.45 269.867 221.784 272.8C215.25 279.733 211.984 287.6 211.984 296.4C211.984 301.2 213.517 305.733 216.584 310C219.65 314 222.65 316 225.584 316C228.65 316 230.984 314.8 232.584 312.4C233.25 311.067 233.584 310.067 233.584 309.4C233.584 307.8 232.717 305.6 230.984 302.8C229.117 299.733 228.184 297.067 228.184 294.8C228.184 292.4 231.85 287.533 239.184 280.2C242.384 277 245.45 273.733 248.384 270.4C255.584 262.133 259.184 253.667 259.184 245C259.184 240.067 257.45 235.067 253.984 230C247.584 221.067 238.917 216.6 227.984 216.6C220.117 216.6 212.717 219.267 205.784 224.6C198.717 229.8 195.184 234.933 195.184 240C195.184 245.6 198.05 248.4 203.784 248.4C205.784 248.4 208.65 245.733 212.384 240.4C213.717 238.267 215.85 236.467 218.784 235C221.85 233.4 225.05 232.6 228.384 232.6C231.85 232.6 235.25 233.867 238.584 236.4C242.05 239.067 243.784 241.933 243.784 245ZM235.984 342.2C235.984 338.333 235.317 335.8 233.984 334.6C232.65 333.267 230.317 332.6 226.984 332.6C223.784 332.6 221.25 333.6 219.384 335.6C217.65 337.733 216.784 339.867 216.784 342C216.784 344.4 217.784 346.8 219.784 349.2C221.784 351.6 223.984 352.8 226.384 352.8C232.784 352.8 235.984 349.267 235.984 342.2Z" fill="black"/>
</g>
</svg>
